<svg width="278" height="160" viewBox="0 0 278 160" fill="none" xmlns="http://www.w3.org/2000/svg">
<path d="M138.564 2.84326C141.007 2.8433 143.423 3.38285 145.242 4.43311L269.95 76.4331C271.772 77.4851 272.57 78.7944 272.57 80.0005C272.57 81.2065 271.772 82.515 269.95 83.5669L145.242 155.567C143.423 156.617 141.007 157.157 138.564 157.157C136.121 157.157 133.705 156.617 131.885 155.567L7.17847 83.5669C5.35657 82.515 4.55851 81.2065 4.55835 80.0005C4.55835 78.7944 5.35639 77.4851 7.17847 76.4331L131.885 4.43311C133.705 3.38275 136.121 2.84326 138.564 2.84326ZM138.564 56.8726C128.47 56.8726 118.348 59.0945 110.601 63.5669C102.858 68.0378 98.8718 73.968 98.8718 80.0005C98.872 86.0328 102.858 91.9623 110.601 96.4331C118.348 100.906 128.47 103.127 138.564 103.127C148.659 103.127 158.781 100.906 166.527 96.4331C174.271 91.9623 178.255 86.0328 178.256 80.0005C178.256 73.9681 174.271 68.0378 166.527 63.5669C158.781 59.0944 148.659 56.8726 138.564 56.8726Z" fill="#FAFAFA" stroke="#8F8F8F"/>
</svg>
