<svg width="198" height="93" viewBox="0 0 198 93" fill="none" xmlns="http://www.w3.org/2000/svg">
<mask id="path-1-inside-1_1821_5134" fill="white">
<path d="M98.7708 5.49524e-06C153.447 8.53721e-06 197.873 20.8186 197.999 46.5C198.126 72.1815 153.905 93 99.2288 93C44.5528 92.9999 0.126781 72.1814 0.000267825 46.5C-0.126157 20.8186 44.0948 3.15123e-05 98.7708 5.49524e-06ZM98.4993 11.1592C54.6544 11.1592 19.1847 26.149 19.2757 44.6396C19.3667 63.1303 54.9835 78.1201 98.8284 78.1201C142.673 78.1201 178.143 63.1303 178.052 44.6397C177.961 26.1491 142.344 11.1593 98.4993 11.1592Z"/>
</mask>
<path d="M98.7708 5.49524e-06C153.447 8.53721e-06 197.873 20.8186 197.999 46.5C198.126 72.1815 153.905 93 99.2288 93C44.5528 92.9999 0.126781 72.1814 0.000267825 46.5C-0.126157 20.8186 44.0948 3.15123e-05 98.7708 5.49524e-06ZM98.4993 11.1592C54.6544 11.1592 19.1847 26.149 19.2757 44.6396C19.3667 63.1303 54.9835 78.1201 98.8284 78.1201C142.673 78.1201 178.143 63.1303 178.052 44.6397C177.961 26.1491 142.344 11.1593 98.4993 11.1592Z" fill="#FAFAFA"/>
<path d="M98.7708 5.49524e-06L98.7708 -0.999995V-0.999995L98.7708 5.49524e-06ZM197.999 46.5L198.999 46.4951L198.999 46.4951L197.999 46.5ZM99.2288 93L99.2288 94V94L99.2288 93ZM0.000267825 46.5L-0.99972 46.5049L-0.99972 46.5049L0.000267825 46.5ZM98.4993 11.1592L98.4993 10.1592L98.4993 10.1592L98.4993 11.1592ZM19.2757 44.6396L18.2757 44.6446L18.2757 44.6446L19.2757 44.6396ZM98.8284 78.1201L98.8284 79.1201V79.1201L98.8284 78.1201ZM178.052 44.6397L179.052 44.6347L179.052 44.6347L178.052 44.6397ZM98.7708 5.49524e-06L98.7708 1.00001C125.995 1.00001 150.62 6.18513 168.417 14.525C186.293 22.902 196.939 34.278 196.999 46.5049L197.999 46.5L198.999 46.4951C198.933 33.0406 187.303 21.1666 169.265 12.714C151.149 4.22417 126.222 -0.999993 98.7708 -0.999995L98.7708 5.49524e-06ZM197.999 46.5L196.999 46.5049C197.06 58.7277 186.531 70.0997 168.739 78.4758C151.026 86.8148 126.454 92 99.2288 92L99.2288 93L99.2288 94C126.68 94 151.556 88.7759 169.591 80.2853C187.547 71.8318 199.066 59.9538 198.999 46.4951L197.999 46.5ZM99.2288 93L99.2288 92C72.0042 92 47.3797 86.8148 29.5828 78.475C11.7067 70.098 1.06049 58.7221 1.00026 46.4951L0.000267825 46.5L-0.99972 46.5049C-0.93344 59.9594 10.6966 71.8334 28.7342 80.286C46.851 88.7758 71.7775 94 99.2288 94L99.2288 93ZM0.000267825 46.5L1.00026 46.4951C0.940085 34.2723 11.4688 22.9004 29.2606 14.5242C46.9735 6.1852 71.546 1.00002 98.7708 1.00001L98.7708 5.49524e-06L98.7708 -0.999995C71.3196 -0.999981 46.4436 4.22413 28.4087 12.7147C10.4526 21.1682 -1.06597 33.0462 -0.99972 46.5049L0.000267825 46.5ZM98.4993 11.1592L98.4993 10.1592C76.4766 10.1592 56.5096 13.9219 42.0223 20.0443C34.7806 23.1047 28.8609 26.7746 24.7425 30.9012C20.6199 35.032 18.2512 39.6774 18.2757 44.6446L19.2757 44.6396L20.2756 44.6347C20.2546 40.3566 22.2856 36.1943 26.1581 32.314C30.0348 28.4295 35.7058 24.885 42.8008 21.8866C56.9868 15.8914 76.6771 12.1592 98.4993 12.1592L98.4993 11.1592ZM19.2757 44.6396L18.2757 44.6446C18.3001 49.6106 20.7135 54.2532 24.8742 58.3816C29.0314 62.5064 34.9855 66.1755 42.2565 69.2356C56.8024 75.3574 76.8055 79.1201 98.8284 79.1201L98.8284 78.1201L98.8284 77.1201C77.0064 77.1201 57.2787 73.3879 43.0323 67.3922C35.9071 64.3934 30.1996 60.8481 26.2829 56.9618C22.3697 53.0791 20.2967 48.914 20.2756 44.6347L19.2757 44.6396ZM98.8284 78.1201L98.8284 79.1201C120.851 79.1201 140.818 75.3575 155.306 69.235C162.547 66.1747 168.467 62.5048 172.585 58.3781C176.708 54.2473 179.076 49.6019 179.052 44.6347L178.052 44.6397L177.052 44.6446C177.073 48.9228 175.042 53.0851 171.17 56.9653C167.293 60.8498 161.622 64.3944 154.527 67.3928C140.341 73.3879 120.651 77.1201 98.8284 77.1201L98.8284 78.1201ZM178.052 44.6397L179.052 44.6347C179.028 39.6687 176.614 35.0261 172.453 30.8978C168.296 26.773 162.342 23.1039 155.071 20.0438C140.525 13.922 120.522 10.1592 98.4993 10.1592L98.4993 11.1592L98.4993 12.1592C120.321 12.1592 140.049 15.8915 154.295 21.8872C161.42 24.8859 167.128 28.4313 171.045 32.3175C174.958 36.2002 177.031 40.3653 177.052 44.6446L178.052 44.6397Z" fill="#8F8F8F" mask="url(#path-1-inside-1_1821_5134)"/>
</svg>
